<?xml version="1.0" standalone="no"?>
<!DOCTYPE svg PUBLIC "-//W3C//DTD SVG 20010904//EN"
 "http://www.w3.org/TR/2001/REC-SVG-20010904/DTD/svg10.dtd">
<svg version="1.0" xmlns="http://www.w3.org/2000/svg"
 width="700.000000pt" height="700.000000pt" viewBox="0 0 700.000000 700.000000"
 preserveAspectRatio="xMidYMid meet">
<metadata>
Created by potrace 1.11, written by Peter Selinger 2001-2013
</metadata>
<g transform="translate(0.000000,700.000000) scale(0.100000,-0.100000)"
fill="#000000" stroke="none">
<path d="M6058 6715 c-2 -2 -19 -6 -38 -9 -146 -23 -294 -103 -407 -218 -101
-103 -156 -198 -196 -340 -20 -70 -23 -105 -22 -204 2 -130 5 -147 39 -246 40
-114 93 -197 185 -289 118 -118 254 -191 406 -217 51 -9 228 -8 278 1 166 31
332 129 450 266 54 64 129 208 153 296 23 83 27 263 9 345 -41 182 -144 350
-280 456 -73 57 -207 124 -279 138 -98 21 -132 24 -208 24 -48 0 -89 -2 -90
-3z"/>
<path d="M3753 6076 c-24 -8 -59 -23 -79 -35 -29 -17 -349 -268 -390 -306 -6
-5 -23 -19 -38 -30 -16 -11 -33 -25 -40 -30 -6 -6 -159 -129 -341 -274 -181
-145 -348 -278 -370 -297 -22 -18 -98 -78 -168 -134 -137 -110 -164 -139 -199
-216 -18 -39 -22 -67 -22 -139 0 -83 3 -95 33 -153 40 -74 93 -125 170 -161
48 -22 69 -26 146 -25 76 1 98 5 140 26 41 21 226 165 615 478 19 16 76 61
125 100 50 40 99 79 110 88 11 10 52 42 90 72 39 30 81 64 95 77 20 17 185
148 247 195 7 6 70 -24 180 -85 92 -51 175 -96 183 -100 34 -16 73 -43 72 -50
0 -6 -270 -328 -327 -391 -6 -6 -64 -74 -130 -151 -66 -77 -122 -142 -125
-145 -29 -25 -174 -208 -201 -253 -24 -41 -40 -57 -55 -57 -49 0 -236 -44
-348 -81 -478 -159 -870 -504 -1089 -959 -74 -153 -131 -331 -153 -475 -52
-341 -33 -605 66 -907 117 -356 338 -664 646 -900 217 -167 535 -305 788 -342
21 -4 41 -8 45 -10 10 -7 181 -19 271 -19 89 -1 238 9 280 18 14 3 41 8 60 11
319 51 696 239 931 465 l44 42 20 -28 c68 -96 149 -153 250 -180 160 -41 325
13 430 142 43 52 54 75 120 258 18 50 90 248 160 440 70 193 142 391 160 440
54 150 125 345 160 440 49 131 58 176 52 252 -9 119 -61 222 -145 290 -115 93
-163 104 -457 103 -217 -1 -234 -3 -304 -26 -40 -14 -74 -23 -75 -22 -34 83
-149 267 -225 363 -31 39 -95 109 -143 158 l-88 87 33 38 c19 20 45 51 59 67
21 24 129 150 261 305 199 232 297 352 297 364 0 3 13 33 29 66 16 33 28 60
26 60 -2 0 3 19 12 43 31 86 25 279 -15 402 -66 207 -254 386 -472 448 -30 9
-104 44 -165 77 -60 34 -144 80 -185 102 -81 44 -168 92 -215 118 -16 9 -100
55 -185 102 -85 47 -189 104 -230 127 -186 103 -237 124 -313 127 -43 3 -89
-2 -114 -10z"/>
<path d="M715 3211 c-71 -31 -106 -135 -66 -199 12 -18 35 -41 53 -52 31 -19
51 -20 418 -20 364 0 387 1 417 20 87 53 96 158 18 230 l-27 25 -396 2 c-218
1 -406 -2 -417 -6z"/>
<path d="M139 2357 c-67 -44 -87 -127 -46 -188 47 -71 32 -69 613 -69 l521 0
34 23 c39 26 69 79 69 122 0 40 -32 90 -72 115 -32 19 -52 20 -559 20 l-526 0
-34 -23z"/>
<path d="M725 1533 c-11 -3 -31 -15 -43 -26 -75 -68 -64 -175 21 -227 30 -19
53 -20 418 -20 385 0 386 0 420 23 67 44 87 127 46 188 -46 69 -48 69 -467 68
-206 -1 -384 -3 -395 -6z"/>
</g>
</svg>
